<svg width="21.000000" height="16.500000" viewBox="0 0 21 16.5" fill="none" xmlns="http://www.w3.org/2000/svg" xmlns:xlink="http://www.w3.org/1999/xlink">
	<desc>
			Created with Pixso.
	</desc>
	<defs/>
	<path id="Vector" d="M20.25 13.5C20.25 14.09 20.01 14.66 19.59 15.09C19.16 15.51 18.59 15.75 18 15.75L3 15.75C2.4 15.75 1.83 15.51 1.4 15.09C0.98 14.66 0.75 14.09 0.75 13.5L0.75 3C0.75 2.4 0.98 1.83 1.4 1.4C1.83 0.98 2.4 0.75 3 0.75L18 0.75C18.59 0.75 19.16 0.98 19.59 1.4C20.01 1.83 20.25 2.4 20.25 3L20.25 13.5ZM20.25 3L20.25 3.24C20.25 3.62 20.15 4 19.96 4.34C19.77 4.67 19.5 4.95 19.18 5.15L11.68 9.77C11.32 9.99 10.91 10.1 10.5 10.1C10.08 10.1 9.67 9.99 9.32 9.77L1.82 5.15C1.49 4.95 1.22 4.67 1.03 4.34C0.84 4 0.74 3.62 0.75 3.24L0.75 3" stroke="#FF4240" stroke-opacity="1.000000" stroke-width="1.500000" stroke-linejoin="round"/>
</svg>
