<svg width="21.000000" height="21.000000" viewBox="0 0 21 21" fill="none" xmlns="http://www.w3.org/2000/svg" xmlns:xlink="http://www.w3.org/1999/xlink">
	<desc>
			Created with Pixso.
	</desc>
	<defs/>
	<path id="Vector" d="M15.75 20.25L18 20.25C18.59 20.25 19.16 20.01 19.59 19.59C20.01 19.16 20.25 18.59 20.25 18L20.25 16.62C20.25 16.11 19.89 15.66 19.39 15.53L14.97 14.43C14.53 14.32 14.07 14.48 13.8 14.84L12.83 16.14C12.55 16.51 12.06 16.68 11.62 16.52C9.98 15.91 8.49 14.96 7.26 13.73C6.03 12.5 5.08 11.01 4.47 9.37C4.31 8.93 4.48 8.44 4.85 8.16L6.15 7.19C6.51 6.92 6.67 6.46 6.56 6.02L5.46 1.6C5.4 1.35 5.26 1.14 5.06 0.98C4.86 0.83 4.62 0.75 4.37 0.75L3 0.75C2.4 0.75 1.83 0.98 1.4 1.4C0.98 1.83 0.75 2.4 0.75 3L0.75 5.25C0.75 13.53 7.46 20.25 15.75 20.25Z" stroke="#FF4240" stroke-opacity="1.000000" stroke-width="1.500000" stroke-linejoin="round"/>
</svg>
